<svg xmlns="http://www.w3.org/2000/svg" viewBox="0 0 750 500"><g id="freepik--Floor--inject-31"><path d="M664.93,466.09c0,.14-134.29.26-299.92.26s-299.94-.12-299.94-.26,134.26-.26,299.94-.26S664.93,465.94,664.93,466.09Z"></path></g><g id="freepik--Plant--inject-31"><path d="M90.59,354.94a39.85,39.85,0,0,0-17-5.85c-2.78-.29-5.82-.2-8,1.48a1.64,1.64,0,0,0-.82,1.47,1.75,1.75,0,0,0,.78,1c6.92,5.28,17.39,5.95,25.1,1.9" style="fill:#455a64"></path><path d="M90.15,354.46a82.8,82.8,0,0,1-11-9.66,27.83,27.83,0,0,1-6.89-12.74c-.3-1.45-.39-3.11.54-4.26,8.76,6.84,15.64,15.68,17.33,26.66" style="fill:#455a64"></path><path d="M90.5,354.88a39.75,39.75,0,0,1,.2-14.43,19.52,19.52,0,0,1,7.69-11.9c1.51,3.54.86,7.61-.21,11.31a55,55,0,0,1-7.61,16" style="fill:#455a64"></path><path d="M99.09,370.26c-5.22.63-9.76,3.38-13.65,6.91a25.82,25.82,0,0,0-7.8,13.39c5.11-.32,9.45-3.92,12.59-8s5.33-8.48,8.78-12.26" style="fill:#455a64"></path><path d="M101,372.72a33.63,33.63,0,0,1,3.88-31.82c3,10.56,1.88,22.49-3.88,31.82" style="fill:#455a64"></path><path d="M112.29,386.23A24.35,24.35,0,0,0,89,399.62c-.29.57-.54,1.31-.16,1.82a1.76,1.76,0,0,0,1.55.46c4.58-.3,8.64-3.06,12-6.2s6.27-6.77,10-9.49" style="fill:#455a64"></path><path d="M111.93,385.49a43.31,43.31,0,0,1-.43-24.2c.85-3.11,2.28-6.39,5.16-7.85a.79.79,0,0,1,1.29.44,14.45,14.45,0,0,1,1.22,6.94,44.27,44.27,0,0,1-1.09,7c-.9,4.29-1.39,8.91-3.74,12.61a24,24,0,0,0-1.5,2.78c-.45.94-.45,1.27-.86,2" style="fill:#455a64"></path><path d="M142,390c-2.23-8.47.13-18.72,5.47-25.66.39-.51.91-1.06,1.55-1,1,.09,1.24,1.4,1.19,2.39A46.39,46.39,0,0,1,142,390" style="fill:#455a64"></path><path d="M144.66,391.82c10.28,2.67,22.08.07,30.63-6.23a24.83,24.83,0,0,0-16.58-2c-5.54,1.27-10.6,3.75-14.05,8.27" style="fill:#455a64"></path><path d="M147,386.18c5.75-9.38,16.79-15.51,27.79-16.07-1.27,4.47-4.94,7.95-9.09,10.05s-8.78,3-13.34,3.9c-1.78.35-4.21.73-5.36,2.12" style="fill:#455a64"></path><path d="M142.53,358.84c1.56-5.34,3.13-10.73,3.55-16.27s-.36-11.34-3.24-16.11c-5.38,10.41-5.92,22.57-.47,32.94" style="fill:#455a64"></path><path d="M160.64,349.69c6.29-11.43,19.12-20.56,32.1-21.84-5,12.47-18.67,22.11-32.1,21.84" style="fill:#455a64"></path><path d="M156.68,351.93c9.38,1.43,17.37,7.42,26.14,11.05a11.57,11.57,0,0,0,5.9,1.13,4.62,4.62,0,0,0,2.9-8.18,12.79,12.79,0,0,0-4.29-2.6c-9.55-4-19.79-4.08-29.84-1.67" style="fill:#455a64"></path><path d="M151.25,358.51c2.12.61,2.85,1.71,4.53,3.14a49,49,0,0,0,19.82,10.18c.76.19,1.75.26,2.13-.42s-.09-1.32-.52-1.85a27.25,27.25,0,0,0-12-8.13c-4.58-1.7-8.54-3.75-14-3.31" style="fill:#455a64"></path><path d="M145.13,318.78a37.49,37.49,0,0,0,28.75,9.78,1.93,1.93,0,0,0,1.31-.47c.73-.79-.14-2-1-2.66-8.45-6.59-18.69-9.32-29.07-6.65" style="fill:#455a64"></path><path d="M152.39,316.12a40.07,40.07,0,0,1,35.88-5.92c-4.52,4.45-10.79,6.85-17.1,7.5a54.09,54.09,0,0,1-18.78-1.58" style="fill:#455a64"></path><path d="M149.5,297.86c-.83-8.44-.29-15.1-.88-23.58,0-.68-.19-1.49-.82-1.74-.88-.34-1.62.75-1.91,1.65a27,27,0,0,0,3.6,23.48" style="fill:#455a64"></path><path d="M148.89,298.79c5.72-3.53,10-8.15,14-13.58,2.76-3.78,5.09-8.31,4.47-12.95-3.88-.07-7.57,2.07-10.09,5a28.22,28.22,0,0,0-5.14,10.34c-1.12,3.72-1.9,7.53-3.22,11.18" style="fill:#455a64"></path><path d="M162.63,295A112.89,112.89,0,0,0,197,274.69c-4.11-1.65-8.81-.66-12.92,1-9.39,3.79-17.06,10.19-21.66,19.2" style="fill:#455a64"></path><path d="M152.76,303.41c6.35.69,12.8,1.15,19.1.09s12-3.49,17.83-5.92a2.15,2.15,0,0,0,1.21-.92,1.39,1.39,0,0,0-.43-1.53,3.67,3.67,0,0,0-1.52-.71c-6.29-1.76-13.08-.94-19.27,1.15a89.57,89.57,0,0,0-16.92,7.84" style="fill:#455a64"></path><path d="M116.49,319.06c-4.33-8.74-4-18.95-.31-28,2.64,4,3,9.13,2.48,13.9s-1.94,9.7-2,14.5" style="fill:#455a64"></path><path d="M99.18,310.33a39.06,39.06,0,0,0-29,12.35c5.4.85,11-.54,15.87-2.94s9.28-5.76,13.6-9.1" style="fill:#455a64"></path><path d="M87.55,306.44c-5.3-.43-10.39-1.08-15.48.48s-9.71,5.1-11.79,10a28,28,0,0,0,14.51-2.74,84.4,84.4,0,0,0,12.76-7.74" style="fill:#455a64"></path><path d="M104.78,306.62c-4.76-3.12-9.65-6.29-15.2-7.59s-12-.33-15.83,3.84c4.49,2.64,9.93,2.95,15.14,2.94s11.58-.06,16.48,1.68" style="fill:#455a64"></path><path d="M104.81,306.87c-8.14-8-11.23-22.35-8-33.27a50.75,50.75,0,0,1,8,33.27" style="fill:#455a64"></path><path d="M127.19,284.23c1.53-3.57,2.61-7.32,4-11a31.34,31.34,0,0,1,5.69-10.09A15,15,0,0,1,147,258a40.59,40.59,0,0,1-19.56,26.31" style="fill:#455a64"></path><path d="M123.14,289c-2.54-3.5-5.48-8.25-8.92-10.86s-7.93-4.19-12.14-3.18a28.29,28.29,0,0,0,21.06,14" style="fill:#455a64"></path><path d="M124,284.52a60,60,0,0,1-4-13c-.67-4.5-.26-9.3,2-13.23,4.46,8.45,5.9,17.51,2.2,26.32" style="fill:#455a64"></path><path d="M127.23,258.29c2.53-8.37,10.19-14.53,18.47-17.36a6.83,6.83,0,0,1,3.24-.49,2.82,2.82,0,0,1,2.39,2c.3,1.42-.88,2.7-2,3.64a62.88,62.88,0,0,1-22.12,12.21" style="fill:#455a64"></path><path d="M127.32,251.45c.32-5.4.66-10.88,2.41-16s5.14-9.92,10.07-12.15c.83,5.45-1.57,10.87-4.47,15.56s-6.4,9.12-8.14,14.36" style="fill:#455a64"></path><path d="M127.19,255.16c-2.1-6.1-2.31-13.85-6-19.17-2.55-3.71-6.64-6.24-8.84-10.18a15.54,15.54,0,0,0,.51,11.56,33.59,33.59,0,0,0,6.76,9.68c2.71,2.89,5,5.06,7.54,8.11" style="fill:#455a64"></path><path d="M127.23,434.85c-.17,0-.31-40.7-.32-90.9S127,253,127.19,253s.3,40.69.31,90.91S127.39,434.85,127.23,434.85Z" style="fill:#263238"></path><path d="M162.8,312.92a9.34,9.34,0,0,1-1.53.58l-4.22,1.42c-3.55,1.21-8.42,3-13.72,5.13s-10.19,4.07-13,6.51a9.46,9.46,0,0,0-2.61,3.46c-.41,1-.48,1.54-.53,1.53s0-.15,0-.43a7,7,0,0,1,.3-1.18,9.26,9.26,0,0,1,2.55-3.69,22.91,22.91,0,0,1,5.64-3.5c2.26-1.05,4.76-2.15,7.42-3.24,5.31-2.18,10.22-3.88,13.82-5,1.79-.56,3.26-1,4.27-1.24A8.55,8.55,0,0,1,162.8,312.92Z" style="fill:#263238"></path><path d="M174.46,284.28a2.49,2.49,0,0,1-.43.46L172.72,286l-4.87,4.43-16.23,14.45c-6.34,5.64-11.81,11-15.61,15.08-1.9,2-3.39,3.71-4.41,4.88l-1.18,1.35c-.28.3-.43.46-.44.44a2.3,2.3,0,0,1,.34-.52c.25-.33.61-.81,1.1-1.42,1-1.22,2.42-2.94,4.29-5a205.62,205.62,0,0,1,15.51-15.24c6.36-5.63,12.15-10.68,16.35-14.32l5-4.29,1.38-1.15A3,3,0,0,1,174.46,284.28Z" style="fill:#263238"></path><path d="M144.78,310.58c-.17-.07,1.15-3.13,2.47-7s2-7.13,2.13-7.1a23.94,23.94,0,0,1-1.57,7.29,46.22,46.22,0,0,1-2,4.89A7.85,7.85,0,0,1,144.78,310.58Z" style="fill:#263238"></path><path d="M127.26,335.22a8.25,8.25,0,0,1-1-1.13l-2.5-3.21c-2.1-2.72-5-6.46-8.26-10.57s-6.25-7.78-8.42-10.44l-2.55-3.16a8.36,8.36,0,0,1-.89-1.21,6.81,6.81,0,0,1,1.06,1.06c.65.7,1.57,1.74,2.7,3,2.25,2.6,5.3,6.24,8.56,10.35s6.11,7.9,8.13,10.68c1,1.39,1.81,2.52,2.35,3.32A6.35,6.35,0,0,1,127.26,335.22Z" style="fill:#263238"></path><path d="M119.47,325.21a14.33,14.33,0,0,1-3.27-6.12,17.3,17.3,0,0,1-.74-6.17l.26,0c-.12.48-.2.72-.25.72s0-.27,0-.76l.26,0a27.84,27.84,0,0,0,1,6A43.72,43.72,0,0,0,119.47,325.21Z" style="fill:#263238"></path><path d="M109.4,312.54a10.75,10.75,0,0,0-2.28-1.32,15.37,15.37,0,0,0-6.34-.51,40.3,40.3,0,0,0-6.38,1,19.67,19.67,0,0,1-2.62.63,9.16,9.16,0,0,1,2.51-1,28.89,28.89,0,0,1,6.45-1.21,13.79,13.79,0,0,1,6.53.7A4.1,4.1,0,0,1,109.4,312.54Z" style="fill:#263238"></path><path d="M107,309.47c-.05.09-1.33-.53-3.5-1.27a35,35,0,0,0-17.61-1.34c-2.25.4-3.61.82-3.65.72a4.06,4.06,0,0,1,.93-.39,20.32,20.32,0,0,1,2.64-.74,31.11,31.11,0,0,1,17.84,1.36,19.75,19.75,0,0,1,2.49,1.13A3.69,3.69,0,0,1,107,309.47Z" style="fill:#263238"></path><path d="M127.19,296.49a71.41,71.41,0,0,1-2.55-8.85c-1.25-4.93-2.14-9-2-9a71.41,71.41,0,0,1,2.55,8.85A74.22,74.22,0,0,1,127.19,296.49Z" style="fill:#263238"></path><path d="M127.35,296.49c-.18.06-.91-2.59-2.83-5.3a23.29,23.29,0,0,0-4.15-4.29,3.92,3.92,0,0,1,1.6.83,12.74,12.74,0,0,1,3,3.12A11.82,11.82,0,0,1,127.35,296.49Z" style="fill:#263238"></path><path d="M127.23,413.15c-.07,0-.19-1-.64-2.71a39.26,39.26,0,0,0-2.72-7c-2.82-5.75-7.93-13-14.44-20.34-3.22-3.68-6.34-7.15-9-10.47A73.68,73.68,0,0,1,94,363.3a44.17,44.17,0,0,1-3.25-6.89c-.3-.84-.52-1.51-.64-2a3.18,3.18,0,0,1-.17-.7s.35.93,1,2.59a49.74,49.74,0,0,0,3.4,6.76,77.05,77.05,0,0,0,6.5,9.16c2.66,3.29,5.79,6.74,9,10.43,6.52,7.32,11.62,14.69,14.36,20.54a35,35,0,0,1,2.57,7.17c.19.88.31,1.57.36,2A3.25,3.25,0,0,1,127.23,413.15Z" style="fill:#263238"></path><path d="M159.37,376.85a16.31,16.31,0,0,1-1.69.94,36.32,36.32,0,0,0-4.36,2.89,49.09,49.09,0,0,0-5.74,5.23c-2,2.13-4.09,4.6-6.21,7.25-4.23,5.31-8.19,10-10.56,13.76-1.21,1.86-2.08,3.43-2.66,4.53a14.34,14.34,0,0,1-.92,1.7,1.47,1.47,0,0,1,.15-.48c.13-.3.3-.76.57-1.32a43.41,43.41,0,0,1,2.51-4.65c2.3-3.84,6.23-8.61,10.45-13.91,2.12-2.65,4.22-5.13,6.28-7.25a45.59,45.59,0,0,1,5.88-5.19,30.34,30.34,0,0,1,4.51-2.76c.56-.28,1-.45,1.31-.58S159.36,376.83,159.37,376.85Z" style="fill:#263238"></path><path d="M160,388.62a24.08,24.08,0,0,1-3.56.52A46.86,46.86,0,0,0,148,390.8a25.55,25.55,0,0,0-7.56,4c-1.74,1.35-2.56,2.46-2.64,2.4a2.6,2.6,0,0,1,.52-.82,13.81,13.81,0,0,1,1.86-1.9,23,23,0,0,1,7.64-4.21,38.51,38.51,0,0,1,8.59-1.51A21,21,0,0,1,160,388.62Z" style="fill:#263238"></path><path d="M138.83,395.87c-.19-.1,1.42-2.55,2.66-5.85s1.44-6.24,1.65-6.21a5.6,5.6,0,0,1-.06,1.91,20.39,20.39,0,0,1-1,4.5,21.91,21.91,0,0,1-2.06,4.13A6,6,0,0,1,138.83,395.87Z" style="fill:#263238"></path><path d="M169.78,345.23a2.64,2.64,0,0,1-.57.3l-1.67.76c-.74.31-1.63.71-2.63,1.24s-2.18,1.05-3.4,1.79l-1.94,1.1c-.68.39-1.34.85-2,1.29-1.43.87-2.87,1.94-4.4,3a75.79,75.79,0,0,0-16.94,17.53c-1,1.57-2.06,3-2.87,4.5-.42.72-.86,1.41-1.23,2.09l-1,2c-.69,1.25-1.19,2.44-1.67,3.46s-.86,1.92-1.15,2.67l-.71,1.7a2.23,2.23,0,0,1-.28.57,2.7,2.7,0,0,1,.17-.61l.6-1.75c.26-.75.6-1.67,1.07-2.71s.92-2.25,1.6-3.52l1-2c.35-.69.78-1.38,1.19-2.12.81-1.48,1.82-3,2.86-4.56a72.73,72.73,0,0,1,17.06-17.65c1.55-1.09,3-2.15,4.46-3,.72-.44,1.39-.89,2.08-1.27l2-1.08c1.24-.71,2.44-1.22,3.46-1.72s1.93-.87,2.68-1.15l1.72-.66A2.12,2.12,0,0,1,169.78,345.23Z" style="fill:#263238"></path><path d="M144.34,362.27a4.06,4.06,0,0,1,1.4-2.08,8.86,8.86,0,0,1,5.64-2.17,15.64,15.64,0,0,1,5.93,1.16,8.66,8.66,0,0,1,2.24,1.09,14.28,14.28,0,0,1-2.38-.69,17.8,17.8,0,0,0-5.78-1A9.2,9.2,0,0,0,146,360.5,17.13,17.13,0,0,0,144.34,362.27Z" style="fill:#263238"></path><path d="M140.54,366.19c-.16-.09,1.27-2.19,1.6-5.2s-.54-5.39-.36-5.44a3.58,3.58,0,0,1,.66,1.52,10.8,10.8,0,0,1-.91,7.8C141,365.77,140.6,366.23,140.54,366.19Z" style="fill:#263238"></path><path d="M99.11,419c.88,15.56,5.57,31.38,12.78,47.37h31.35c6.88-15.83,11.24-31.63,12-47.37Z" style="fill:#109CF1"></path><path d="M150.18,444.15c0,.17-10.33.3-23.06.3s-23.05-.13-23.05-.3,10.32-.29,23.05-.29S150.18,444,150.18,444.15Z" style="fill:#fafafa"></path><path d="M149.48,449.79c0,.16-9.68.29-21.62.29s-21.61-.13-21.61-.29,9.67-.3,21.61-.3S149.48,449.63,149.48,449.79Z" style="fill:#fafafa"></path></g></svg>