<svg xmlns="http://www.w3.org/2000/svg" viewBox="0 0 750 500"><g id="freepik--Desk--inject-2"><path d="M686.47,453.34c0,.14-141.7.26-316.45.26s-316.49-.12-316.49-.26,141.67-.26,316.49-.26S686.47,453.2,686.47,453.34Z" style="fill:#263238"></path></g><g id="freepik--Plants--inject-2"><path d="M86.61,426.4a2.56,2.56,0,0,1,.19-.46c.15-.33.36-.76.62-1.32a34,34,0,0,0,1.82-5.28c1.2-4.7,1.62-11.87-.16-20.4a109.07,109.07,0,0,0-3.78-13.7c-1.6-4.86-3.46-10-5-15.6a60.35,60.35,0,0,1-2.46-17.93c.23-6.35,2.11-12.68,4.17-19s4.2-12.49,4.83-18.7a28.46,28.46,0,0,0-3.42-17.26c-2.74-5-6.18-9.34-8.75-13.81a48.11,48.11,0,0,1-5.26-13.27,49.4,49.4,0,0,1-.33-20.56,38.37,38.37,0,0,1,2.14-7.27,2,2,0,0,1-.12.49c-.11.34-.25.8-.44,1.39a51,51,0,0,0-1.33,5.44,50,50,0,0,0,.53,20.41,47.87,47.87,0,0,0,5.28,13.1c2.57,4.41,6,8.7,8.81,13.8A29,29,0,0,1,87.5,314.1c-.64,6.31-2.79,12.52-4.84,18.83s-3.93,12.56-4.16,18.8a60.11,60.11,0,0,0,2.4,17.75c1.49,5.55,3.33,10.71,4.91,15.59a108.94,108.94,0,0,1,3.73,13.78c1.73,8.59,1.23,15.84-.06,20.55a31.32,31.32,0,0,1-1.94,5.28c-.29.54-.51,1-.68,1.29A2.92,2.92,0,0,1,86.61,426.4Z" style="fill:#263238"></path><path d="M78.19,287.37S73,270.65,82.34,260.86a.58.58,0,0,1,1,.29C83.83,263.91,84.46,272.32,78.19,287.37Z" style="fill:#FF725E"></path><path d="M81.32,266.43a15.28,15.28,0,0,1-.35,3.09c-.35,2.12-.75,4.62-1.2,7.37s-.83,5.25-1.17,7.37a15.81,15.81,0,0,1-.55,3.05,13,13,0,0,1,.09-3.1c.18-1.91.51-4.54,1-7.43s1-5.48,1.38-7.35A14.09,14.09,0,0,1,81.32,266.43Z" style="fill:#263238"></path><path d="M84.33,326.79s3.19-17.22,16.06-21.49a.58.58,0,0,1,.74.72C100.28,308.7,96.9,316.42,84.33,326.79Z" style="fill:#FF725E"></path><path d="M96.88,309.75a15,15,0,0,1-1.75,2.56l-4.5,6-4.48,6a16.9,16.9,0,0,1-1.92,2.44,12.74,12.74,0,0,1,1.54-2.7c1-1.61,2.57-3.78,4.34-6.1s3.42-4.39,4.66-5.85A13.54,13.54,0,0,1,96.88,309.75Z" style="fill:#263238"></path><path d="M80.85,370S78.91,352.58,90,344.76a.58.58,0,0,1,.92.48C90.86,348,89.87,356.41,80.85,370Z" style="fill:#FF725E"></path><path d="M87.92,350a15.87,15.87,0,0,1-.94,3l-2.57,7-2.56,7a17.5,17.5,0,0,1-1.12,2.89,12.31,12.31,0,0,1,.68-3c.53-1.84,1.37-4.36,2.38-7.1s2-5.19,2.76-6.95A13.26,13.26,0,0,1,87.92,350Z" style="fill:#263238"></path><path d="M90.54,413.44s-1.32-17.47,10-24.88a.58.58,0,0,1,.9.5C101.34,391.86,100.05,400.19,90.54,413.44Z" style="fill:#FF725E"></path><path d="M98.32,393.75a15.7,15.7,0,0,1-1,2.93c-.82,2-1.77,4.33-2.83,6.91l-2.8,6.92a17.23,17.23,0,0,1-1.23,2.84,13.37,13.37,0,0,1,.79-3c.6-1.82,1.52-4.31,2.64-7s2.18-5.12,3-6.85A14.2,14.2,0,0,1,98.32,393.75Z" style="fill:#263238"></path><path d="M70.67,272.68S55.15,264.57,54.85,251a.58.58,0,0,1,.9-.5C58.06,252.12,64.45,257.61,70.67,272.68Z" style="fill:#FF725E"></path><path d="M58.07,255.68A15.34,15.34,0,0,1,60,258.11l4.38,6.05,4.39,6a16.9,16.9,0,0,1,1.77,2.55,12.82,12.82,0,0,1-2.13-2.26c-1.23-1.47-2.85-3.57-4.56-5.94s-3.19-4.56-4.23-6.17A13.89,13.89,0,0,1,58.07,255.68Z" style="fill:#263238"></path><path d="M87.34,308.58s-16-7.15-17.11-20.66a.58.58,0,0,1,.87-.55C73.5,288.82,80.22,293.92,87.34,308.58Z" style="fill:#FF725E"></path><path d="M73.73,292.37a16.42,16.42,0,0,1,2.08,2.31l4.73,5.77c1.78,2.15,3.39,4.1,4.75,5.76a15.71,15.71,0,0,1,1.92,2.44A13.85,13.85,0,0,1,85,306.52c-1.32-1.4-3.07-3.39-4.91-5.65s-3.47-4.36-4.6-5.91A13.69,13.69,0,0,1,73.73,292.37Z" style="fill:#263238"></path><path d="M78.14,348.62s-11-13.65-5.82-26.18a.58.58,0,0,1,1-.1C74.82,324.73,78.48,332.32,78.14,348.62Z" style="fill:#FF725E"></path><path d="M73.41,328a16.3,16.3,0,0,1,.8,3c.45,2.1,1,4.57,1.58,7.3s1.14,5.19,1.61,7.29a17.36,17.36,0,0,1,.6,3,12.9,12.9,0,0,1-1-2.93c-.54-1.84-1.19-4.41-1.8-7.26s-1.1-5.46-1.4-7.35A13.94,13.94,0,0,1,73.41,328Z" style="fill:#263238"></path><path d="M89,395.74s-15.87-7.42-16.77-20.94a.58.58,0,0,1,.89-.54C75.51,375.75,82.14,381,89,395.74Z" style="fill:#FF725E"></path><path d="M75.68,379.31a15.2,15.2,0,0,1,2,2.34l4.64,5.85L87,393.34a17.2,17.2,0,0,1,1.88,2.46,12.31,12.31,0,0,1-2.23-2.16c-1.3-1.42-3-3.44-4.82-5.73s-3.39-4.42-4.49-6A14.26,14.26,0,0,1,75.68,379.31Z" style="fill:#263238"></path><path d="M120.62,326.88a1.73,1.73,0,0,1,0,.39c0,.3,0,.67,0,1.12,0,1.05-.11,2.47-.19,4.25-.2,3.73-.49,8.93-.83,15.16h0v0c-1.13,6.33-4.36,13.36-8.7,20.18-3.18,5-6.51,9.59-9.39,13.84a97.3,97.3,0,0,0-7,11.63,48.82,48.82,0,0,0-3.3,8.54c-.28,1.05-.49,1.86-.61,2.42a4.29,4.29,0,0,1-.23.84,4.38,4.38,0,0,1,.1-.87c.08-.56.25-1.39.5-2.45a44.67,44.67,0,0,1,3.12-8.68,92.54,92.54,0,0,1,7-11.77c2.86-4.28,6.17-8.85,9.34-13.85,4.31-6.79,7.52-13.7,8.7-19.94v0c.44-6.22.8-11.42,1.07-15.15.14-1.76.25-3.18.34-4.23,0-.45.08-.81.11-1.12S120.6,326.88,120.62,326.88Z" style="fill:#263238"></path><path d="M111.17,366.71s6.72-16.17-1.73-26.77a.58.58,0,0,0-1,.2C107.68,342.84,106.29,351.16,111.17,366.71Z" style="fill:#FF725E"></path><path d="M110,345.58a14.27,14.27,0,0,1,.53,3.06c.24,1.9.51,4.54.71,7.45s.31,5.56.31,7.48a12.27,12.27,0,0,1-.19,3.1,17.31,17.31,0,0,1-.27-3.09c-.15-2.14-.31-4.66-.5-7.44s-.37-5.31-.52-7.45A15.27,15.27,0,0,1,110,345.58Z" style="fill:#263238"></path><g style="opacity:0.30000000000000004"><path d="M111.17,366.71s6.72-16.17-1.73-26.77a.58.58,0,0,0-1,.2C107.68,342.84,106.29,351.16,111.17,366.71Z"></path></g><path d="M90.36,405.69s5.39-16.67-3.9-26.54a.57.57,0,0,0-1,.28C84.94,382.18,84.23,390.58,90.36,405.69Z" style="fill:#FF725E"></path><path d="M87.43,384.73a13.67,13.67,0,0,1,.78,3c.39,1.88.87,4.48,1.31,7.37s.76,5.52.91,7.43a13,13,0,0,1,.07,3.11,16.45,16.45,0,0,1-.53-3.06c-.31-2.13-.69-4.62-1.1-7.38s-.8-5.26-1.12-7.39A15.4,15.4,0,0,1,87.43,384.73Z" style="fill:#263238"></path><g style="opacity:0.30000000000000004"><path d="M90.36,405.69s5.39-16.67-3.9-26.54a.57.57,0,0,0-1,.28C84.94,382.18,84.23,390.58,90.36,405.69Z"></path></g><path d="M119.73,347s14.35-10.05,12.9-23.52a.58.58,0,0,0-1-.38C129.58,324.93,124,331.2,119.73,347Z" style="fill:#FF725E"></path><g style="opacity:0.30000000000000004"><path d="M119.73,347s14.35-10.05,12.9-23.52a.58.58,0,0,0-1-.38C129.58,324.93,124,331.2,119.73,347Z"></path></g><path d="M130,328.46a13.83,13.83,0,0,1-1.19,2.87c-.82,1.73-2,4.09-3.39,6.66s-2.73,4.86-3.76,6.48a12.75,12.75,0,0,1-1.82,2.52,17.37,17.37,0,0,1,1.42-2.75l3.58-6.56,3.56-6.56A15.22,15.22,0,0,1,130,328.46Z" style="fill:#263238"></path><path d="M96.15,389.17s17.3-2.7,21.94-15.44a.58.58,0,0,0-.7-.76C114.69,373.74,106.87,376.89,96.15,389.17Z" style="fill:#FF725E"></path><g style="opacity:0.30000000000000004"><path d="M96.15,389.17s17.3-2.7,21.94-15.44a.58.58,0,0,0-.7-.76C114.69,373.74,106.87,376.89,96.15,389.17Z"></path></g><path d="M113.54,377.11a15,15,0,0,1-2.33,2.05c-1.5,1.19-3.61,2.79-6,4.49s-4.58,3.16-6.22,4.16a12.84,12.84,0,0,1-2.75,1.46,16.65,16.65,0,0,1,2.5-1.85l6.09-4.31,6.09-4.32A14.5,14.5,0,0,1,113.54,377.11Z" style="fill:#263238"></path><polygon points="75.67 421.01 80.64 453.57 100.46 453.54 107.14 421.01 75.67 421.01" style="fill:#455a64"></polygon><path d="M104.23,433.57s0,.05-.17.12a3.86,3.86,0,0,1-.52.3,7.32,7.32,0,0,1-2.21.66,8.15,8.15,0,0,1-3.65-.34,7.67,7.67,0,0,1-3.92-2.85,5.52,5.52,0,0,1-.92-2.72,3,3,0,0,1,1.35-2.8,3.21,3.21,0,0,1,3.32.27,4.9,4.9,0,0,1,1.9,3,12.9,12.9,0,0,1,.25,3.68,12.48,12.48,0,0,1-.81,3.76,8.21,8.21,0,0,1-2.3,3.28,6.35,6.35,0,0,1-3.81,1.59,6.94,6.94,0,0,1-4-1.15,12,12,0,0,1-3-2.67,6.57,6.57,0,0,1-1.5-3.58,4.14,4.14,0,0,1,1.41-3.45,3.19,3.19,0,0,1,3.51-.21,3.75,3.75,0,0,1,2,2.65,5.08,5.08,0,0,1-2.51,5.15,6.92,6.92,0,0,1-4.78.69,10.59,10.59,0,0,1-3.41-1.33,18.32,18.32,0,0,1-1.91-1.29,3.81,3.81,0,0,1-.61-.52,4.72,4.72,0,0,1,.67.43c.44.29,1.08.72,2,1.2A11.28,11.28,0,0,0,84,438.65a6.75,6.75,0,0,0,4.54-.73,4.71,4.71,0,0,0,2.26-4.73A3.31,3.31,0,0,0,89,430.87a2.73,2.73,0,0,0-3,.18,3.66,3.66,0,0,0-1.2,3,6,6,0,0,0,1.4,3.28,11.48,11.48,0,0,0,2.83,2.54A6.44,6.44,0,0,0,92.71,441a5.91,5.91,0,0,0,3.49-1.46,7.75,7.75,0,0,0,2.16-3.07,11.79,11.79,0,0,0,.78-3.59,12.48,12.48,0,0,0-.22-3.53,4.38,4.38,0,0,0-1.68-2.71,2.76,2.76,0,0,0-2.83-.28,2.56,2.56,0,0,0-1.15,2.39,5.16,5.16,0,0,0,.82,2.53,7.4,7.4,0,0,0,3.7,2.77,8,8,0,0,0,3.52.42A9.17,9.17,0,0,0,104.23,433.57Z" style="fill:#263238"></path><path d="M640,351.92a53.38,53.38,0,0,1,50.9-14A92.66,92.66,0,0,1,639.44,354" style="fill:#FF725E"></path><path d="M657.3,290.79c-2.12-15,3.71-31.87,14.94-42.77.37,14.86-5.91,31.59-14.94,42.77" style="fill:#FF725E"></path><path d="M648.32,319.12A80.12,80.12,0,0,1,685.1,284a50.5,50.5,0,0,1-36.92,35.31" style="fill:#FF725E"></path><path d="M646.46,324.59c9.06.25,18.23-.06,27-2.38s17.15-6.78,23-13.71a90.15,90.15,0,0,0-49.83,15.21" style="fill:#FF725E"></path><path d="M651.06,306.58c-4.6-17.23-12.18-29.15-25.73-38.81a35.82,35.82,0,0,0,25.73,38.81" style="fill:#FF725E"></path><path d="M616.87,336.3a25.5,25.5,0,0,1,15.49-23.62c-.75,8.9-7.74,19.19-15.49,23.62" style="fill:#FF725E"></path><path d="M612.54,321.77a38,38,0,0,0-24.9-32.42c3.13,14.4,11.45,26.39,24.9,32.42" style="fill:#FF725E"></path><path d="M619.06,347.56c-3.19-4.57-8.41-7.41-13.8-8.82s-11-1.54-16.61-1.66a38.82,38.82,0,0,0,30,12.49" style="fill:#FF725E"></path><path d="M625.53,384.29a42.55,42.55,0,0,0-51.94,24.61c18.87-3.58,37.49-12,51.94-24.61" style="fill:#FF725E"></path><path d="M646.24,371.53c-3.13,9.26-2.53,20.46,4.44,28.45a34,34,0,0,0-4.44-28.45" style="fill:#FF725E"></path><path d="M658.48,366.38a34.85,34.85,0,0,0,19.25,28.28,2.13,2.13,0,0,0,1.7.28c.85-.34.93-1.5.83-2.41-1.37-11.87-10.16-23.35-21.78-26.15" style="fill:#FF725E"></path><path d="M666.48,365.18a28.57,28.57,0,0,0,41.75.21c-13.27-1.45-28.59-2.42-41.75-.21" style="fill:#FF725E"></path><path d="M668.46,259.07a1.73,1.73,0,0,1-.12.39l-.4,1.12c-.38,1-.92,2.46-1.6,4.3s-1.54,4.15-2.5,6.82c-.48,1.33-1,2.75-1.54,4.26l-1.65,4.8c-2.35,6.72-5,14.79-7.78,23.77s-5.68,18.93-8.54,29.41-5.32,20.54-7.45,29.71-3.85,17.47-5.13,24.48c-.33,1.75-.65,3.41-.94,5s-.52,3.07-.76,4.46c-.48,2.79-.89,5.19-1.17,7.16s-.53,3.47-.7,4.54c-.08.49-.14.88-.19,1.17s-.08.4-.08.4a2,2,0,0,1,0-.4c0-.29.08-.69.14-1.19.14-1.06.35-2.59.6-4.55s.63-4.38,1.09-7.17c.22-1.4.46-2.89.72-4.48s.59-3.25.91-5c1.24-7,3-15.32,5-24.51s4.6-19.24,7.42-29.74,5.79-20.43,8.58-29.42,5.49-17,7.89-23.75l1.69-4.79c.56-1.5,1.08-2.92,1.58-4.25,1-2.66,1.83-4.94,2.57-6.79s1.29-3.26,1.69-4.26l.45-1.11C668.4,259.2,668.45,259.07,668.46,259.07Z" style="fill:#263238"></path><path d="M595.56,297s.08.07.23.21l.63.67c.56.59,1.36,1.48,2.36,2.64A93.07,93.07,0,0,1,606.6,311a70.14,70.14,0,0,1,8.17,17.48c2.19,7,3.55,14.87,4.9,23.14,2.7,16.55,6,31.37,8.41,42.09,1.2,5.34,2.18,9.66,2.87,12.69.33,1.48.58,2.64.77,3.46.07.37.14.67.18.9a1.43,1.43,0,0,1,.05.31,1.61,1.61,0,0,1-.1-.3c-.06-.23-.14-.52-.23-.89-.21-.82-.5-2-.86-3.43-.73-3-1.76-7.34-3-12.66-2.49-10.7-5.86-25.52-8.56-42.09-1.35-8.27-2.7-16.15-4.85-23.08a70.44,70.44,0,0,0-8-17.43,99.11,99.11,0,0,0-7.66-10.48c-1-1.19-1.75-2.09-2.28-2.7l-.6-.7A1.67,1.67,0,0,1,595.56,297Z" style="fill:#263238"></path><path d="M670.44,364.61a1.55,1.55,0,0,1-.48.09l-1.37.15-1,.1-1.18.18c-.84.12-1.8.25-2.85.48l-1.64.33-1.77.44c-1.23.28-2.5.73-3.85,1.14a56.2,56.2,0,0,0-8.4,3.7,47.16,47.16,0,0,0-7.54,5.24,35.09,35.09,0,0,0-2.89,2.77,32.06,32.06,0,0,0-2.29,2.64,27.67,27.67,0,0,0-1.69,2.33,16.43,16.43,0,0,0-1.16,1.85l-.71,1.19a1.83,1.83,0,0,1-.27.4,1.7,1.7,0,0,1,.18-.45l.63-1.24a13.83,13.83,0,0,1,1.09-1.9,24.89,24.89,0,0,1,1.65-2.4,28.68,28.68,0,0,1,2.26-2.71,37.2,37.2,0,0,1,2.89-2.84,46.32,46.32,0,0,1,7.6-5.32,54.24,54.24,0,0,1,8.5-3.71c1.37-.4,2.65-.83,3.9-1.1l1.78-.42,1.67-.3c1.06-.21,2-.31,2.88-.4l1.18-.14,1,0,1.39-.06A2.23,2.23,0,0,1,670.44,364.61Z" style="fill:#263238"></path><path d="M674.22,297.36a7.6,7.6,0,0,1-1,.92l-2.73,2.37c-2.32,2-5.55,4.69-9.13,7.67s-6.86,5.64-9.24,7.56l-2.83,2.24a7,7,0,0,1-1.08.77,6.3,6.3,0,0,1,1-.92l2.74-2.37c2.32-2,5.55-4.7,9.13-7.67s6.85-5.64,9.23-7.56l2.84-2.24A6.43,6.43,0,0,1,674.22,297.36Z" style="fill:#263238"></path><path d="M677.48,314.91c0,.14-6.93,2.32-15.56,4.87s-15.67,4.51-15.71,4.37,6.93-2.31,15.57-4.86S677.44,314.78,677.48,314.91Z" style="fill:#263238"></path><path d="M651.75,307.92a6,6,0,0,1-.72-1l-1.84-2.8c-1.55-2.35-3.77-5.57-6.38-9s-5.14-6.41-7-8.54c-.88-1-1.62-1.84-2.2-2.52a5.39,5.39,0,0,1-.78-1,5.75,5.75,0,0,1,.92.83c.57.55,1.36,1.38,2.33,2.41,1.93,2.08,4.5,5,7.13,8.47s4.8,6.7,6.29,9.11c.74,1.21,1.32,2.2,1.7,2.89A6.19,6.19,0,0,1,651.75,307.92Z" style="fill:#263238"></path><path d="M627.55,317.67a24.52,24.52,0,0,1-1.64,2.69c-1,1.63-2.45,3.91-3.91,6.48s-2.7,5-3.57,6.68A23.27,23.27,0,0,1,617,336.3a17,17,0,0,1,1.15-2.94c.8-1.77,2-4.19,3.46-6.77s2.93-4.84,4.06-6.43A17.05,17.05,0,0,1,627.55,317.67Z" style="fill:#263238"></path><path d="M619.27,348a38.63,38.63,0,0,1-3.54-1.56c-2.18-1-5.22-2.26-8.65-3.46s-6.61-2.1-8.92-2.69a38.05,38.05,0,0,1-3.74-1,4.64,4.64,0,0,1,1,.11c.67.1,1.62.28,2.79.53a77.85,77.85,0,0,1,17.64,6.18c1.07.53,1.93,1,2.51,1.32A4.44,4.44,0,0,1,619.27,348Z" style="fill:#263238"></path><path d="M625.79,384.35a1.37,1.37,0,0,1-.43.14l-1.26.32-4.63,1.07a154.16,154.16,0,0,0-15.14,4,66.82,66.82,0,0,0-14.12,6.64c-1.69,1.07-3,2-3.9,2.7a13.7,13.7,0,0,1-1.4,1,2.22,2.22,0,0,1,.31-.33c.22-.2.53-.5,1-.86a43.48,43.48,0,0,1,3.82-2.86,62,62,0,0,1,14.15-6.81,126.57,126.57,0,0,1,15.23-3.87l4.67-.91A11.65,11.65,0,0,1,625.79,384.35Z" style="fill:#263238"></path><path d="M649.36,393.3c-.14,0-1-4.87-1.85-10.92s-1.49-11-1.35-11,1,4.87,1.85,10.92S649.5,393.28,649.36,393.3Z" style="fill:#263238"></path><path d="M673.9,384.39a27,27,0,0,1-2.21-2.63c-1.33-1.65-3.16-3.93-5.24-6.4s-4-4.67-5.4-6.26a25.3,25.3,0,0,1-2.21-2.64,3.33,3.33,0,0,1,.7.61c.43.41,1,1,1.77,1.78,1.47,1.53,3.44,3.71,5.53,6.19s3.88,4.79,5.14,6.5c.62.86,1.12,1.56,1.45,2A3.09,3.09,0,0,1,673.9,384.39Z" style="fill:#263238"></path><polygon points="608.95 407.15 608.95 419.28 611.99 419.28 622.76 453.3 646.67 453.3 657.11 419.61 661.15 419.28 661.15 407.15 608.95 407.15" style="fill:#263238"></polygon><path d="M659.13,419.61c0,.14-10.55.26-23.57.26s-23.57-.12-23.57-.26,10.55-.25,23.57-.25S659.13,419.47,659.13,419.61Z" style="fill:#455a64"></path><path d="M676.33,341.61a10.21,10.21,0,0,1-1.54.41l-4.19,1c-3.54.88-8.39,2.21-13.66,4s-9.94,3.65-13.29,5.09l-3.95,1.73a9.8,9.8,0,0,1-1.47.59,9.23,9.23,0,0,1,1.38-.77c.91-.47,2.24-1.12,3.9-1.88a138.74,138.74,0,0,1,27-9.09c1.78-.39,3.23-.68,4.23-.85A8.19,8.19,0,0,1,676.33,341.61Z" style="fill:#263238"></path><path d="M651.2,438.51c0,.14-7.41.25-16.54.25s-16.54-.11-16.54-.25,7.4-.26,16.54-.26S651.2,438.37,651.2,438.51Z" style="fill:#fafafa"></path><path d="M652.13,435.69c0,.14-7.85.26-17.53.26s-17.53-.12-17.53-.26,7.85-.25,17.53-.25S652.13,435.55,652.13,435.69Z" style="fill:#fafafa"></path></g></svg>