<svg xmlns="http://www.w3.org/2000/svg" viewBox="0 0 500 500"><g id="freepik--Plant--inject-2"><path d="M380.13,302.19c16,15.66,18.68,39.89,15.31,61.11-.09.48-.83.35-.83-.1,0-4.83.15-9.62.13-14.39-.09-.22-.16-.43-.25-.64-4.17-3-8-6.47-10.39-11.17-2.67-5.25-3.72-11.18-5.76-16.67-.19-.52.37-.37.74-.1,9.72,7.18,12.83,14.9,15.62,25.22a85.26,85.26,0,0,0-1.7-16.07c-2.1-9.79-6.26-19.49-13.29-26.76C379.45,302.34,379.86,301.92,380.13,302.19Z" style="fill:#263238"></path><path d="M377.13,304c-2.75.09-4.48,4.49-6.62,5.77a2.06,2.06,0,0,1-3-.47c-2.13-3,.79-6.63,3.53-8.67-2,.8-3.59,2.22-5.7,2.62a2,2,0,0,1-2.57-1.54c-.94-4.05,4.14-5.84,7.62-5.93-1.69-1.17-6.53-4.36-4-5.93s8.28,3,10.13,4.49c2.72,2.21,6,5.5,6.09,9C382.77,307.34,379.24,304.86,377.13,304Z" style="fill:#48B7FF"></path><path d="M377.13,304c-2.75.09-4.48,4.49-6.62,5.77a2.06,2.06,0,0,1-3-.47c-2.13-3,.79-6.63,3.53-8.67-2,.8-3.59,2.22-5.7,2.62a2,2,0,0,1-2.57-1.54c-.94-4.05,4.14-5.84,7.62-5.93-1.69-1.17-6.53-4.36-4-5.93s8.28,3,10.13,4.49c2.72,2.21,6,5.5,6.09,9C382.77,307.34,379.24,304.86,377.13,304Z" style="opacity:0.1"></path><path d="M377.92,304.7c-3.51-1.6-10.27.7-10.85-.63-1.16-2.71,4.24-4.57,7.15-4.93-2.68-.73-7.83-1.89-7.67-4.48.19-3.16,7.89-.44,11.79,2.55,4.91,3.76,4.87,7.39,4.06,8.12C381.29,306.33,378.5,305,377.92,304.7Z" style="fill:#48B7FF"></path><path d="M416.56,300.64c-16.58,15-20.18,39.15-17.62,60.48.07.49.82.38.83-.07.19-4.82.22-9.61.42-14.38.1-.22.18-.42.27-.63,4.29-2.88,8.25-6.16,10.81-10.77,2.87-5.14,4.14-11,6.39-16.43.21-.52-.35-.39-.73-.13-10,6.8-13.39,14.4-16.57,24.61a86.81,86.81,0,0,1,2.3-16c2.48-9.7,7-19.24,14.31-26.24A.3.3,0,0,0,416.56,300.64Z" style="fill:#263238"></path><path d="M419.5,302.58c2.74.2,4.3,4.66,6.39,6a2.05,2.05,0,0,0,3.05-.36c2.24-2.88-.53-6.65-3.2-8.8,1.93.88,3.5,2.36,5.6,2.84a2,2,0,0,0,2.63-1.44c1.09-4-3.91-6-7.39-6.21,1.73-1.11,6.69-4.11,4.18-5.78s-8.39,2.67-10.29,4.1c-2.8,2.1-6.17,5.28-6.42,8.72C413.73,305.69,417.35,303.35,419.5,302.58Z" style="fill:#48B7FF"></path><path d="M419.5,302.58c2.74.2,4.3,4.66,6.39,6a2.05,2.05,0,0,0,3.05-.36c2.24-2.88-.53-6.65-3.2-8.8,1.93.88,3.5,2.36,5.6,2.84a2,2,0,0,0,2.63-1.44c1.09-4-3.91-6-7.39-6.21,1.73-1.11,6.69-4.11,4.18-5.78s-8.39,2.67-10.29,4.1c-2.8,2.1-6.17,5.28-6.42,8.72C413.73,305.69,417.35,303.35,419.5,302.58Z" style="opacity:0.1"></path><path d="M418.67,303.23c3.58-1.46,10.25,1.09,10.87-.22,1.27-2.66-4.06-4.72-7-5.19,2.71-.63,7.9-1.59,7.84-4.18-.07-3.17-7.87-.75-11.88,2.09-5,3.58-5.15,7.2-4.37,8C415.25,304.73,418.08,303.47,418.67,303.23Z" style="fill:#48B7FF"></path><path d="M399.61,340.36a163,163,0,0,1-5.15,23.78.59.59,0,0,1-1.16-.23c1.09-7.33,3.07-14.52,4.16-21.85a110.06,110.06,0,0,0,1.28-22.43c-.7-12.35-4.05-25.48-12.11-35.15-.18-.23.2-.55.38-.34C403.14,303,400.57,326,400.56,328.08c2.28-7.78,4.64-16.71,13.28-24.64.37-.34.66-.18.6.4-1.55,14.45-5.56,22-13.94,29.71C400.27,335.84,400,338.12,399.61,340.36Z" style="fill:#263238"></path><path d="M386.48,286.65c-2.9-1.29-6.9,2.4-9.77,2.66-1.53.13-2.65-.47-2.92-2-.71-4.15,4.16-6.47,8-7.22-2.44-.15-4.84.5-7.23-.14a2.31,2.31,0,0,1-1.9-2.9c1.07-4.66,7.24-4,10.89-2.31-1.16-2.07-4.57-7.81-1.11-8.15s7.08,7.27,8.25,9.76c1.71,3.66,3.41,8.71,1.8,12.35C390.66,292.94,388.25,288.59,386.48,286.65Z" style="fill:#48B7FF"></path><path d="M386.48,286.65c-2.9-1.29-6.9,2.4-9.77,2.66-1.53.13-2.65-.47-2.92-2-.71-4.15,4.16-6.47,8-7.22-2.44-.15-4.84.5-7.23-.14a2.31,2.31,0,0,1-1.9-2.9c1.07-4.66,7.24-4,10.89-2.31-1.16-2.07-4.57-7.81-1.11-8.15s7.08,7.27,8.25,9.76c1.71,3.66,3.41,8.71,1.8,12.35C390.66,292.94,388.25,288.59,386.48,286.65Z" style="opacity:0.1"></path><path d="M387,287.75c-2.85-3.43-11-4.44-11-6.11.16-3.4,6.7-2.61,9.9-1.52-2.41-2.1-7.17-5.9-5.7-8.5,1.79-3.19,8.41,3.51,10.95,8.57,3.19,6.38,1.33,10.13.13,10.47C389.64,291.14,387.44,288.32,387,287.75Z" style="fill:#48B7FF"></path><path d="M410.22,344.71l7.12,54.36H374c.89-4.81,8.95-54.42,8.95-54.42Z" style="fill:#48B7FF"></path></g><g id="freepik--Desk--inject-2"><polygon points="45.75 399.07 96.82 398.83 147.88 398.74 250 398.58 352.12 398.74 403.19 398.83 454.25 399.07 403.19 399.32 352.12 399.41 250 399.57 147.88 399.41 96.82 399.32 45.75 399.07" style="fill:#263238"></polygon></g></svg>