<svg xmlns="http://www.w3.org/2000/svg" viewBox="0 0 500 500"><g id="freepik--Floor--inject-35"><path d="M472.32,464.61c0,.15-99.55.26-222.31.26s-222.33-.11-222.33-.26,99.52-.26,222.33-.26S472.32,464.47,472.32,464.61Z" style="fill:#263238"></path></g><g id="freepik--Plant--inject-35"><path d="M92.73,425.37s-5-34.57-4.6-54.68,0-42.74,0-42.74h2.32s-1.57,39.92.14,64,6.2,33.42,6.2,33.42h-4" style="fill:#263238"></path><path d="M107.71,289.05A6.09,6.09,0,0,0,105.6,286c-1.47-.93-3.4-.55-5,0-7,2.48-13.2,15.53-16,22.4l9.29,31.32C110.6,324.14,113.5,303.72,107.71,289.05Z" style="fill:#455a64"></path><path d="M105.06,287.22a2.1,2.1,0,0,1-.14.41l-.45,1.14c-.41,1-1,2.42-1.66,4.2-1.37,3.56-3.12,8.53-4.67,14.13s-2.63,10.77-3.29,14.52c-.33,1.88-.58,3.4-.74,4.45-.08.5-.14.9-.19,1.22a2.05,2.05,0,0,1-.1.42,2.76,2.76,0,0,1,0-.43c0-.33.08-.73.13-1.23.11-1.06.32-2.59.62-4.48A132.74,132.74,0,0,1,97.77,307a135.2,135.2,0,0,1,4.78-14.13c.72-1.77,1.33-3.19,1.78-4.15l.52-1.12A3.05,3.05,0,0,1,105.06,287.22Z" style="fill:#263238"></path><path d="M89.69,347.22C81,342.4,75.84,333.35,75.36,323.4c-.33-6.95,1.8-13.77,4.22-20.29a2.56,2.56,0,0,1,1-1.47,2.46,2.46,0,0,1,2.37.37c6.33,3.6,10.17,10.47,12.21,17.47a35.2,35.2,0,0,1,1.43,14.37,23.84,23.84,0,0,1-6.89,13.37" style="fill:#455a64"></path><path d="M89.69,347.22a2.37,2.37,0,0,1,0-.42c0-.32,0-.72,0-1.21,0-1,0-2.55-.13-4.41a119.22,119.22,0,0,0-1.61-14.47c-1-5.61-2.14-10.63-3-14.26-.42-1.78-.77-3.23-1-4.3L83.58,307a3.12,3.12,0,0,1-.07-.42,1.22,1.22,0,0,1,.15.4l.34,1.15c.28,1,.68,2.46,1.15,4.27.93,3.62,2.14,8.64,3.11,14.27a104.94,104.94,0,0,1,1.51,14.52c0,1.87.06,3.38,0,4.43,0,.48,0,.88,0,1.2A1.8,1.8,0,0,1,89.69,347.22Z" style="fill:#263238"></path><g style="opacity:0.30000000000000004"><path d="M89.69,347.22C81,342.4,75.84,333.35,75.36,323.4c-.33-6.95,1.8-13.77,4.22-20.29a2.56,2.56,0,0,1,1-1.47,2.46,2.46,0,0,1,2.37.37c6.33,3.6,10.17,10.47,12.21,17.47a35.2,35.2,0,0,1,1.43,14.37,23.84,23.84,0,0,1-6.89,13.37"></path></g><path d="M99.52,400.11C108.09,402,115.15,408,123.43,411c5.47,1.95,11.66,2.64,16,6.46-1.05-2.64-3.54-4.41-6-5.91a106.72,106.72,0,0,0-21.67-10.35c-3.89-1.34-8.11-2.47-12.08-1.36" style="fill:#455a64"></path><path d="M87.12,407.75c-10.74-.17-22-9.32-32.73-9.86,11.18-3.61,27.2-.66,32.73,9.86" style="fill:#455a64"></path><path d="M91.32,382a34.91,34.91,0,0,1,17.17-1.17,104.7,104.7,0,0,1,16.76,4.56c-.56-3.73-3.57-6.53-6.41-9a44.24,44.24,0,0,0-6.73-5.17,15,15,0,0,0-8.07-2.28,12.81,12.81,0,0,0-8.91,4.49A14.77,14.77,0,0,0,91.32,382" style="fill:#455a64"></path><path d="M69.28,370.13c-6.76-5.77-17-5.2-25.89-5a211,211,0,0,1,40.15,25C83.9,383.86,77.82,377.42,69.28,370.13Z" style="fill:#455a64"></path><g style="opacity:0.30000000000000004"><path d="M69.28,370.13c-6.76-5.77-17-5.2-25.89-5a211,211,0,0,1,40.15,25C83.9,383.86,77.82,377.42,69.28,370.13Z"></path></g><path d="M94.36,362.17a74.64,74.64,0,0,1,10.39-6c3.56-1.62,6.88-4.2,10.32-6.06,4.45-2.41,8.31-5.76,12.4-8.75s8.59-5.7,13.59-6.49a26.7,26.7,0,0,0-12.36.72,79.16,79.16,0,0,0-11.64,4.52c-5.28,2.38-10.64,4.81-15,8.67s-8.21,7.66-7.75,13.43" style="fill:#455a64"></path><path d="M123.23,407.75a1.41,1.41,0,0,1-.34-.15l-.94-.48c-.81-.43-2-1.07-3.43-1.8-.72-.39-1.52-.79-2.39-1.19s-1.8-.85-2.79-1.28a41.57,41.57,0,0,0-6.61-2.31,14.18,14.18,0,0,0-6.89-.17,18.93,18.93,0,0,0-2.92.87,15,15,0,0,0-5.32,3.66c-.62.66-.92,1.07-.95,1.05a1.54,1.54,0,0,1,.19-.32c.14-.2.35-.48.65-.83a14,14,0,0,1,2.93-2.58A14.67,14.67,0,0,1,96.8,401a18.36,18.36,0,0,1,3-.92,14.21,14.21,0,0,1,7,.14,38.82,38.82,0,0,1,6.67,2.35c1,.44,1.93.88,2.79,1.32s1.66.84,2.38,1.24c1.45.76,2.59,1.44,3.38,1.91l.9.55A1.54,1.54,0,0,1,123.23,407.75Z" style="fill:#263238"></path><path d="M79.11,402.43a2.39,2.39,0,0,1,.68.2,14.45,14.45,0,0,1,1.74.76,21.06,21.06,0,0,1,9,8.62,15.63,15.63,0,0,1,.83,1.71,3,3,0,0,1,.22.67c-.06,0-.46-.88-1.29-2.25a24.45,24.45,0,0,0-3.87-4.84,24.08,24.08,0,0,0-5-3.67C80,402.86,79.09,402.49,79.11,402.43Z" style="fill:#263238"></path><path d="M55.35,369.59a2.55,2.55,0,0,1,.46.14l1.29.46,2,.75c.79.29,1.65.73,2.63,1.16a61.89,61.89,0,0,1,14,8.9,69.81,69.81,0,0,1,6.52,6.42,73,73,0,0,1,4.62,5.86c1.23,1.74,2.16,3.19,2.8,4.19l.73,1.15a2.18,2.18,0,0,1,.24.42,3.29,3.29,0,0,1-.3-.37c-.19-.26-.46-.63-.8-1.12-.67-1-1.64-2.4-2.89-4.11s-2.82-3.68-4.67-5.78a71.76,71.76,0,0,0-6.5-6.37,65.55,65.55,0,0,0-13.85-9c-1-.44-1.81-.89-2.59-1.2l-2-.81-1.26-.53A1.79,1.79,0,0,1,55.35,369.59Z" style="fill:#263238"></path><path d="M107.43,376a3.22,3.22,0,0,1-.86-.11l-1-.18c-.39-.07-.83-.07-1.32-.12A13.46,13.46,0,0,0,96.89,377a13.23,13.23,0,0,0-3.36,2.49,15.43,15.43,0,0,0-2.16,2.67A20.08,20.08,0,0,0,89.9,385a3.33,3.33,0,0,1,.21-.84,12.67,12.67,0,0,1,1-2.12,14.1,14.1,0,0,1,2.14-2.77,14,14,0,0,1,12.34-3.79l1,.25A4.09,4.09,0,0,1,107.43,376Z" style="fill:#263238"></path><path d="M118.22,342.47s-.13.1-.4.25l-1.2.65c-1,.57-2.54,1.39-4.36,2.47s-4,2.42-6.22,4a52.83,52.83,0,0,0-7,5.82,17.71,17.71,0,0,0-2.84,3.68c-.7,1.35-1.38,2.66-2,3.91a69.65,69.65,0,0,0-3,6.79,41.6,41.6,0,0,0-1.45,4.79c-.27,1.14-.37,1.79-.41,1.79a2.46,2.46,0,0,1,0-.48c0-.31.11-.76.22-1.35A36.81,36.81,0,0,1,91,370a64.91,64.91,0,0,1,2.92-6.85c.61-1.27,1.28-2.58,2-3.93a17.85,17.85,0,0,1,2.89-3.77,50.37,50.37,0,0,1,7-5.84c2.3-1.62,4.45-2.94,6.29-4s3.37-1.84,4.43-2.36l1.23-.59A2.84,2.84,0,0,1,118.22,342.47Z" style="fill:#263238"></path><path d="M88.11,375a5,5,0,0,1-.21-.91c-.13-.66-.28-1.49-.47-2.48a69.58,69.58,0,0,0-2-8.06,70.64,70.64,0,0,0-3.07-7.72c-.41-.92-.77-1.69-1-2.3a4.73,4.73,0,0,1-.35-.86,4.38,4.38,0,0,1,.48.79c.28.53.68,1.29,1.16,2.25a53.68,53.68,0,0,1,5.12,15.85c.16,1.06.29,1.91.35,2.51A4.31,4.31,0,0,1,88.11,375Z" style="fill:#263238"></path><path d="M87.34,350.56a29.22,29.22,0,0,0-3.5-11.6A38.25,38.25,0,0,0,57.9,319.62l24,35.79L85,361.8C87.14,358.33,87.6,354.61,87.34,350.56Z" style="fill:#455a64"></path><rect x="65.94" y="421.1" width="55.84" height="9.9" style="fill:#D3DCF1"></rect><polygon points="70.11 429.03 76.24 464.52 110.97 464.52 117.61 429.03 70.11 429.03" style="fill:#D3DCF1"></polygon><path d="M121.75,431c0,.11-12.59.2-28.13.2s-28.13-.09-28.13-.2,12.59-.19,28.13-.19S121.75,430.9,121.75,431Z" style="fill:#263238"></path></g></svg>
