<svg xmlns="http://www.w3.org/2000/svg" viewBox="0 0 500 500"><g id="freepik--Floor--inject-2"><path d="M464.66,459.35c0,.15-96.12.26-214.65.26s-214.67-.11-214.67-.26,96.1-.26,214.67-.26S464.66,459.21,464.66,459.35Z" style="fill:#263238"></path></g><g id="freepik--Plant--inject-2"><path d="M433.77,433.18a2.35,2.35,0,0,1,.18-.42c.14-.3.33-.7.56-1.21a29.54,29.54,0,0,0,1.67-4.84c1.1-4.3,1.49-10.87-.14-18.67a100.91,100.91,0,0,0-3.47-12.55c-1.46-4.45-3.17-9.17-4.56-14.28a55.38,55.38,0,0,1-2.25-16.42c.21-5.81,1.93-11.6,3.82-17.38S433.42,336,434,330.3a26.11,26.11,0,0,0-3.14-15.8c-2.5-4.61-5.65-8.56-8-12.64a44,44,0,0,1-4.81-12.16,45.33,45.33,0,0,1-.31-18.82,34.68,34.68,0,0,1,2-6.65,2.57,2.57,0,0,1-.12.44l-.4,1.27c-.34,1.12-.79,2.8-1.22,5a46,46,0,0,0,.49,18.69,43.51,43.51,0,0,0,4.83,12c2.35,4,5.51,8,8.07,12.63a26.64,26.64,0,0,1,3.23,16.13c-.59,5.78-2.55,11.47-4.44,17.24s-3.59,11.5-3.8,17.21a54.63,54.63,0,0,0,2.2,16.26c1.37,5.08,3.05,9.8,4.5,14.27a98.25,98.25,0,0,1,3.4,12.62c1.59,7.86,1.14,14.5,0,18.81a27.84,27.84,0,0,1-1.79,4.83l-.62,1.19A2.06,2.06,0,0,1,433.77,433.18Z" style="fill:#263238"></path><path d="M426.06,305.89s-4.78-15.31,3.8-24.27a.53.53,0,0,1,.91.26C431.23,284.41,431.8,292.11,426.06,305.89Z" style="fill:#FF725E"></path><path d="M428.93,286.72a14.65,14.65,0,0,1-.32,2.82c-.32,1.95-.69,4.23-1.09,6.75s-.77,4.81-1.08,6.75a16.84,16.84,0,0,1-.5,2.8A11.86,11.86,0,0,1,426,303c.16-1.75.47-4.15.9-6.79s.9-5,1.27-6.73A12.4,12.4,0,0,1,428.93,286.72Z" style="fill:#263238"></path><path d="M431.68,342s2.93-15.77,14.71-19.67a.53.53,0,0,1,.68.66C446.29,325.42,443.2,332.49,431.68,342Z" style="fill:#FF725E"></path><path d="M443.18,326.38a14.81,14.81,0,0,1-1.6,2.35l-4.13,5.45-4.1,5.47a16,16,0,0,1-1.75,2.23,11.84,11.84,0,0,1,1.4-2.48c1-1.47,2.36-3.45,4-5.58s3.13-4,4.26-5.36A12.88,12.88,0,0,1,443.18,326.38Z" style="fill:#263238"></path><path d="M428.5,381.53s-1.78-15.94,8.36-23.09a.52.52,0,0,1,.84.43C437.67,361.44,436.76,369.1,428.5,381.53Z" style="fill:#FF725E"></path><path d="M435,363.26a13.32,13.32,0,0,1-.85,2.71l-2.36,6.42c-.88,2.4-1.67,4.57-2.34,6.42a16.44,16.44,0,0,1-1,2.65,11.68,11.68,0,0,1,.62-2.78c.49-1.68,1.25-4,2.18-6.5s1.84-4.75,2.53-6.36A13.93,13.93,0,0,1,435,363.26Z" style="fill:#263238"></path><path d="M437.37,421.31s-1.2-16,9.18-22.78a.53.53,0,0,1,.83.46C447.26,401.56,446.08,409.19,437.37,421.31Z" style="fill:#FF725E"></path><path d="M444.49,403.29a13.85,13.85,0,0,1-.95,2.68c-.74,1.82-1.62,4-2.59,6.33s-1.82,4.5-2.56,6.33a15.56,15.56,0,0,1-1.13,2.61,12,12,0,0,1,.73-2.76c.55-1.66,1.39-3.94,2.41-6.41s2-4.69,2.75-6.27A13.36,13.36,0,0,1,444.49,403.29Z" style="fill:#263238"></path><path d="M419.18,292.44S405,285,404.69,272.61a.54.54,0,0,1,.83-.46C407.63,273.61,413.49,278.65,419.18,292.44Z" style="fill:#FF725E"></path><path d="M407.64,276.87a13.75,13.75,0,0,1,1.77,2.23c1.16,1.59,2.51,3.47,4,5.54l4,5.52a15.67,15.67,0,0,1,1.62,2.33,11.76,11.76,0,0,1-1.95-2.07c-1.13-1.34-2.61-3.26-4.17-5.43s-2.93-4.18-3.87-5.65A13.66,13.66,0,0,1,407.64,276.87Z" style="fill:#263238"></path><path d="M434.45,325.31s-14.64-6.55-15.67-18.92a.53.53,0,0,1,.8-.5C421.77,307.22,427.92,311.88,434.45,325.31Z" style="fill:#FF725E"></path><path d="M422,310.47a13.57,13.57,0,0,1,1.9,2.11l4.34,5.29,4.35,5.27a16,16,0,0,1,1.76,2.23,12.18,12.18,0,0,1-2.08-1.95c-1.2-1.28-2.8-3.1-4.49-5.17s-3.17-4-4.21-5.41A12.85,12.85,0,0,1,422,310.47Z" style="fill:#263238"></path><path d="M426,362s-10-12.5-5.33-24a.53.53,0,0,1,.94-.08C423,340.09,426.33,347.05,426,362Z" style="fill:#FF725E"></path><path d="M421.68,343.08a13.63,13.63,0,0,1,.74,2.75c.42,1.92.91,4.18,1.45,6.68s1.05,4.75,1.47,6.67a15.67,15.67,0,0,1,.55,2.79,12,12,0,0,1-1-2.68c-.49-1.69-1.09-4-1.65-6.66s-1-5-1.28-6.72A13,13,0,0,1,421.68,343.08Z" style="fill:#263238"></path><path d="M436,405.11s-14.53-6.79-15.35-19.17a.53.53,0,0,1,.81-.5C423.61,386.81,429.68,391.58,436,405.11Z" style="fill:#FF725E"></path><path d="M423.77,390.06a14.89,14.89,0,0,1,1.86,2.15l4.25,5.35,4.26,5.35a15.68,15.68,0,0,1,1.72,2.26,11.78,11.78,0,0,1-2-2c-1.19-1.3-2.75-3.15-4.41-5.25s-3.1-4.05-4.12-5.48A12.23,12.23,0,0,1,423.77,390.06Z" style="fill:#263238"></path><path d="M464.91,342.07s0,.12,0,.35,0,.61,0,1c0,1-.1,2.27-.17,3.89-.18,3.42-.45,8.19-.76,13.89h0v0c-1,5.8-4,12.23-8,18.48-2.91,4.6-6,8.78-8.6,12.67A89.36,89.36,0,0,0,441,403.05a44.9,44.9,0,0,0-3,7.82c-.25.95-.45,1.7-.56,2.21a4.65,4.65,0,0,1-.21.78,3.63,3.63,0,0,1,.1-.8c.07-.52.22-1.28.45-2.25a40.87,40.87,0,0,1,2.85-7.95A85.88,85.88,0,0,1,447,392.09c2.62-3.92,5.65-8.11,8.55-12.68,3.95-6.22,6.89-12.55,8-18.26v0c.4-5.69.73-10.45,1-13.87.13-1.62.24-2.91.32-3.88,0-.4.07-.74.1-1A1.32,1.32,0,0,1,464.91,342.07Z" style="fill:#263238"></path><path d="M456.26,378.53s6.15-14.8-1.58-24.51a.53.53,0,0,0-.93.18C453.06,356.68,451.79,364.29,456.26,378.53Z" style="fill:#FF725E"></path><path d="M455.14,359.19a13,13,0,0,1,.49,2.8c.22,1.74.46,4.15.65,6.82s.28,5.09.28,6.85a11.6,11.6,0,0,1-.17,2.84,15,15,0,0,1-.25-2.83c-.13-2-.29-4.27-.46-6.82s-.33-4.86-.47-6.82A14.46,14.46,0,0,1,455.14,359.19Z" style="fill:#263238"></path><g style="opacity:0.30000000000000004"><path d="M456.26,378.53s6.15-14.8-1.58-24.51a.53.53,0,0,0-.93.18C453.06,356.68,451.79,364.29,456.26,378.53Z"></path></g><path d="M437.21,414.22s4.93-15.26-3.57-24.3a.53.53,0,0,0-.91.25C432.25,392.69,431.6,400.39,437.21,414.22Z" style="fill:#FF725E"></path><path d="M434.52,395a12.27,12.27,0,0,1,.72,2.76c.36,1.71.79,4.1,1.2,6.74s.69,5.05.84,6.8a12,12,0,0,1,.05,2.85,17.08,17.08,0,0,1-.48-2.8c-.29-1.95-.63-4.23-1-6.76s-.73-4.81-1-6.76A14.48,14.48,0,0,1,434.52,395Z" style="fill:#263238"></path><g style="opacity:0.30000000000000004"><path d="M437.21,414.22s4.93-15.26-3.57-24.3a.53.53,0,0,0-.91.25C432.25,392.69,431.6,400.39,437.21,414.22Z"></path></g><path d="M464.1,360.44s13.13-9.2,11.81-21.54a.53.53,0,0,0-.88-.34C473.12,340.28,468,346,464.1,360.44Z" style="fill:#FF725E"></path><g style="opacity:0.30000000000000004"><path d="M464.1,360.44s13.13-9.2,11.81-21.54a.53.53,0,0,0-.88-.34C473.12,340.28,468,346,464.1,360.44Z"></path></g><path d="M473.53,343.51a12.33,12.33,0,0,1-1.09,2.63c-.75,1.58-1.84,3.74-3.11,6.1s-2.49,4.45-3.43,5.93a11.86,11.86,0,0,1-1.67,2.3,14.73,14.73,0,0,1,1.3-2.52c.94-1.73,2.05-3.75,3.27-6l3.26-6A14.61,14.61,0,0,1,473.53,343.51Z" style="fill:#263238"></path><path d="M442.51,399.09s15.84-2.47,20.08-14.13a.53.53,0,0,0-.63-.7C459.49,385,452.33,387.85,442.51,399.09Z" style="fill:#FF725E"></path><g style="opacity:0.30000000000000004"><path d="M442.51,399.09s15.84-2.47,20.08-14.13a.53.53,0,0,0-.63-.7C459.49,385,452.33,387.85,442.51,399.09Z"></path></g><path d="M458.43,388.05a12.84,12.84,0,0,1-2.14,1.87c-1.37,1.1-3.3,2.56-5.47,4.12s-4.2,2.89-5.7,3.81a11.57,11.57,0,0,1-2.52,1.33,15.44,15.44,0,0,1,2.29-1.69l5.58-3.94,5.57-4A13.29,13.29,0,0,1,458.43,388.05Z" style="fill:#263238"></path><polygon points="427.39 428.25 422.77 459.35 451.57 459.35 447.84 428.25 427.39 428.25" style="fill:#455a64"></polygon><path d="M449,437.88c0,.17-5.2.3-11.61.3s-11.62-.13-11.62-.3a114.71,114.71,0,0,1,11.62-.3A114.58,114.58,0,0,1,449,437.88Z" style="fill:#263238"></path><path d="M449.56,440.36c0,.17-5.37.3-12,.3s-12-.13-12-.3,5.37-.3,12-.3S449.56,440.19,449.56,440.36Z" style="fill:#263238"></path></g></svg>